<?xml version="1.0" encoding="UTF-8" standalone="no"?>
<!-- Generator: Adobe Illustrator 28.1.0, SVG Export Plug-In . SVG Version: 6.00 Build 0)  -->

<svg
   version="1.1"
   id="Capa_1"
   x="0px"
   y="0px"
   viewBox="0 0 28 28"
   xml:space="preserve"
   sodipodi:docname="nocountry.svg"
   width="28"
   height="28"
   inkscape:version="1.3.2 (091e20e, 2023-11-25, custom)"
   xmlns:inkscape="http://www.inkscape.org/namespaces/inkscape"
   xmlns:sodipodi="http://sodipodi.sourceforge.net/DTD/sodipodi-0.dtd"
   xmlns="http://www.w3.org/2000/svg"
   xmlns:svg="http://www.w3.org/2000/svg"><defs
   id="defs11" /><sodipodi:namedview
   id="namedview11"
   pagecolor="#ffffff"
   bordercolor="#000000"
   borderopacity="0.25"
   inkscape:showpageshadow="2"
   inkscape:pageopacity="0.0"
   inkscape:pagecheckerboard="0"
   inkscape:deskcolor="#d1d1d1"
   inkscape:zoom="11.884268"
   inkscape:cx="14.767422"
   inkscape:cy="16.450319"
   inkscape:window-width="1360"
   inkscape:window-height="705"
   inkscape:window-x="-8"
   inkscape:window-y="-8"
   inkscape:window-maximized="1"
   inkscape:current-layer="Capa_1" />
<style
   type="text/css"
   id="style1">
	.st0{fill:#09FCA7;}
	.st1{fill:#FFFFFF;}
</style>
<g
   id="g11"
   transform="translate(-2.77,-5)">
	<g
   id="g1">
		<path
   class="st0"
   d="m 30.16,19 c 0,1.93 -1.56,3.49 -3.49,3.49 -0.89,0 -1.71,-0.34 -2.33,-0.89 v 7.88 H 3.38 V 8.52 h 7.18 c -0.13,0.36 -0.2,0.76 -0.2,1.16 0,1.93 1.56,3.49 3.49,3.49 1.93,0 3.49,-1.56 3.49,-3.49 0,-0.41 -0.07,-0.8 -0.2,-1.16 h 7.18 v 0.89 c 0,0 -0.01,0.01 -0.01,0.01 0.01,0.09 0.01,0.18 0.01,0.27 v 6.71 c 0.62,-0.55 1.43,-0.89 2.33,-0.89 1.95,0 3.51,1.56 3.51,3.49 z"
   id="path1" />
	</g>
	
</g>
</svg>
