<?xml version="1.0" encoding="UTF-8" standalone="no"?>
<svg
   width="30"
   height="30"
   viewBox="0 0 30 29.999998"
   fill="none"
   version="1.1"
   id="svg18"
   sodipodi:docname="qoop-face-white.svg"
   inkscape:version="1.3.2 (091e20e, 2023-11-25, custom)"
   xmlns:inkscape="http://www.inkscape.org/namespaces/inkscape"
   xmlns:sodipodi="http://sodipodi.sourceforge.net/DTD/sodipodi-0.dtd"
   xmlns="http://www.w3.org/2000/svg"
   xmlns:svg="http://www.w3.org/2000/svg">
  <defs
     id="defs18" />
  <sodipodi:namedview
     id="namedview18"
     pagecolor="#ffffff"
     bordercolor="#000000"
     borderopacity="0.25"
     inkscape:showpageshadow="2"
     inkscape:pageopacity="0.0"
     inkscape:pagecheckerboard="0"
     inkscape:deskcolor="#d1d1d1"
     inkscape:zoom="14.396694"
     inkscape:cx="13.648967"
     inkscape:cy="13.648967"
     inkscape:window-width="1360"
     inkscape:window-height="705"
     inkscape:window-x="-8"
     inkscape:window-y="-8"
     inkscape:window-maximized="1"
     inkscape:current-layer="svg18" />
  <path
     d="m 13.9708,14.99785 c 0,1.2834 -0.2854,2.4198 -0.8542,3.4084 -0.5698,0.9864 -1.3406,1.7604 -2.3125,2.3208 -0.9698,0.5615 -2.0562,0.8417 -3.2583,0.8417 -1.2031,0 -2.2937,-0.2802 -3.2708,-0.8417 C 3.2968,20.16665 2.5229,19.39265 1.9541,18.40625 1.3843,17.41765 1.1,16.28125 1.1,14.99785 c 0,-1.2802 0.2843,-2.4135 0.8541,-3.4 0.5688,-0.9885 1.3427,-1.7635 2.3209,-2.325 0.9771,-0.5604 2.0677,-0.8416 3.2708,-0.8416 1.2021,0 2.2885,0.2812 3.2583,0.8416 0.9719,0.5615 1.7427,1.3365 2.3125,2.325 0.5688,0.9865 0.8542,2.1198 0.8542,3.4 z m -2.525,0 c 0.0167,-0.85 -0.149,-1.5979 -0.4958,-2.2458 -0.3448,-0.65 -0.8146,-1.1552 -1.4084,-1.5167 -0.5916,-0.3604 -1.2573,-0.5416 -1.9958,-0.5416 -0.7365,0 -1.4062,0.1812 -2.0083,0.5416 -0.6,0.3615 -1.074,0.8667 -1.4209,1.5167 -0.3448,0.6479 -0.5083,1.3958 -0.4916,2.2458 -0.0167,0.8365 0.1468,1.5792 0.4916,2.2292 0.3469,0.6479 0.8209,1.1563 1.4209,1.525 0.6021,0.3698 1.2718,0.5542 2.0083,0.5542 0.7385,0 1.4042,-0.1844 1.9958,-0.5542 0.5938,-0.3687 1.0636,-0.8771 1.4084,-1.525 0.3468,-0.65 0.5125,-1.3927 0.4958,-2.2292 z"
     fill="white"
     id="path2"
     style="fill:#ffffff" />
  <path
     d="m 28.7651,14.99785 c 0,1.2834 -0.2855,2.4198 -0.8542,3.4084 -0.5698,0.9864 -1.3406,1.7604 -2.3125,2.3208 -0.9698,0.5615 -2.0563,0.8417 -3.2583,0.8417 -1.2032,0 -2.2938,-0.2802 -3.2709,-0.8417 -0.9781,-0.5604 -1.7521,-1.3344 -2.3208,-2.3208 -0.5698,-0.9886 -0.8542,-2.125 -0.8542,-3.4084 0,-1.2802 0.2844,-2.4135 0.8542,-3.4 0.5687,-0.9885 1.3427,-1.7635 2.3208,-2.325 0.9771,-0.5604 2.0677,-0.8416 3.2709,-0.8416 1.202,0 2.2885,0.2812 3.2583,0.8416 0.9719,0.5615 1.7427,1.3365 2.3125,2.325 0.5687,0.9865 0.8542,2.1198 0.8542,3.4 z m -2.525,0 c 0.0166,-0.85 -0.149,-1.5979 -0.4959,-2.2458 -0.3448,-0.65 -0.8146,-1.1552 -1.4083,-1.5167 -0.5917,-0.3604 -1.2573,-0.5416 -1.9958,-0.5416 -0.7365,0 -1.4063,0.1812 -2.0084,0.5416 -0.6,0.3615 -1.0739,0.8667 -1.4208,1.5167 -0.3448,0.6479 -0.5083,1.3958 -0.4917,2.2458 -0.0166,0.8365 0.1469,1.5792 0.4917,2.2292 0.3469,0.6479 0.8208,1.1563 1.4208,1.525 0.6021,0.3698 1.2719,0.5542 2.0084,0.5542 0.7385,0 1.4041,-0.1844 1.9958,-0.5542 0.5937,-0.3687 1.0635,-0.8771 1.4083,-1.525 0.3469,-0.65 0.5125,-1.3927 0.4959,-2.2292 z"
     fill="white"
     id="path3"
     style="fill:#ffffff" />
  <mask
     id="mask0_57_2145"
     maskUnits="userSpaceOnUse"
     x="24"
     y="40"
     width="8"
     height="3">
    <path
       d="m 24.2667,40.8 h 7.4666 v 2.1333 h -7.4666 z"
       fill="#ffffff"
       id="path8" />
  </mask>
  <g
     mask="url(#mask0_57_2145)"
     id="g13"
     style="fill:#ffffff"
     transform="translate(-20.5489,-35.66765)">
    <mask
       id="mask1_57_2145"
       maskUnits="userSpaceOnUse"
       x="24"
       y="38"
       width="8"
       height="9">
      <path
         d="m 24.3667,42.5094 3.677,-3.6761 3.6761,3.6761 -3.6761,3.677 z"
         fill="#ffffff"
         id="path9" />
    </mask>
    <path
       d="m 31.6448,42.5093 -0.4042,0.4052 c -1.7833,-1.7843 -4.6864,-1.7843 -6.4698,0 l -0.4041,-0.4052 c 2.0062,-2.0062 5.2718,-2.0062 7.2781,0 z"
       fill="white"
       fill-opacity="0.937255"
       id="path11"
       style="fill:#ffffff" />
  </g>
  <mask
     id="mask3_57_2145"
     maskUnits="userSpaceOnUse"
     x="39"
     y="40"
     width="8"
     height="3">
    <path
       d="m 39.2,40.8 h 7.4667 v 2.1333 H 39.2 Z"
       fill="#ffffff"
       id="path13" />
  </mask>
  <g
     mask="url(#mask3_57_2145)"
     id="g18"
     style="fill:#ffffff"
     transform="translate(-20.5489,-35.66765)">
    <mask
       id="mask4_57_2145"
       maskUnits="userSpaceOnUse"
       x="39"
       y="38"
       width="8"
       height="9">
      <path
         d="m 39.2104,42.5094 3.6771,-3.6761 3.6771,3.6761 -3.6771,3.677 z"
         fill="#ffffff"
         id="path14" />
    </mask>
    <path
       d="m 46.4896,42.5093 -0.4042,0.4052 c -1.7844,-1.7843 -4.6864,-1.7843 -6.4698,0 l -0.4052,-0.4052 c 2.0073,-2.0062 5.2729,-2.0062 7.2792,0 z"
       fill="white"
       fill-opacity="0.937255"
       id="path16"
       style="fill:#ffffff" />
  </g>
</svg>
